<svg xmlns="http://www.w3.org/2000/svg" width="430" height="430" style="width:100%;height:100%;transform:translate3d(0,0,0);content-visibility:visible" viewBox="0 0 430 430"><defs><filter id="a" width="100%" height="100%" x="0%" y="0%" filterUnits="objectBoundingBox"><feComponentTransfer in="SourceGraphic"><feFuncA tableValues="1.0 0.0" type="table"/></feComponentTransfer></filter><filter id="c" width="100%" height="100%" x="0%" y="0%" filterUnits="objectBoundingBox"><feComponentTransfer in="SourceGraphic"><feFuncA tableValues="1.0 0.0" type="table"/></feComponentTransfer></filter><filter id="e" width="100%" height="100%" x="0%" y="0%" filterUnits="objectBoundingBox"><feComponentTransfer in="SourceGraphic"><feFuncA tableValues="1.0 0.0" type="table"/></feComponentTransfer></filter><filter id="g" width="100%" height="100%" x="0%" y="0%" filterUnits="objectBoundingBox"><feComponentTransfer in="SourceGraphic"><feFuncA tableValues="1.0 0.0" type="table"/></feComponentTransfer></filter><filter id="R" width="300%" height="300%" x="-100%" y="-100%"><feGaussianBlur result="filter_result_0"/></filter><filter id="j" width="100%" height="100%" x="0%" y="0%" filterUnits="objectBoundingBox"><feComponentTransfer in="SourceGraphic"><feFuncA tableValues="1.0 0.0" type="table"/></feComponentTransfer></filter><filter id="q" width="100%" height="100%" x="0%" y="0%" filterUnits="objectBoundingBox"><feComponentTransfer in="SourceGraphic"><feFuncA tableValues="1.0 0.0" type="table"/></feComponentTransfer></filter><filter id="s" width="100%" height="100%" x="0%" y="0%" filterUnits="objectBoundingBox"><feComponentTransfer in="SourceGraphic"><feFuncA tableValues="1.0 0.0" type="table"/></feComponentTransfer></filter><filter id="u" width="100%" height="100%" x="0%" y="0%" filterUnits="objectBoundingBox"><feComponentTransfer in="SourceGraphic"><feFuncA tableValues="1.0 0.0" type="table"/></feComponentTransfer></filter><filter id="P" width="300%" height="300%" x="-100%" y="-100%"><feGaussianBlur result="filter_result_0" stdDeviation="52.5 52.5"/></filter><mask id="G" mask-type="alpha"><g filter="url(#a)"><path fill="#fff" d="M0 0h430v430H0z" opacity="0"/><use xmlns:ns1="http://www.w3.org/1999/xlink" ns1:href="#b"/></g></mask><mask id="F" mask-type="alpha"><g filter="url(#c)"><path fill="#fff" d="M0 0h430v430H0z" opacity="0"/><use xmlns:ns2="http://www.w3.org/1999/xlink" ns2:href="#d"/></g></mask><mask id="E" mask-type="alpha"><g filter="url(#e)"><path fill="#fff" d="M0 0h430v430H0z" opacity="0"/><use xmlns:ns3="http://www.w3.org/1999/xlink" ns3:href="#f"/></g></mask><mask id="D" mask-type="alpha"><g filter="url(#g)"><path fill="#fff" d="M0 0h430v430H0z" opacity="0"/><use xmlns:ns4="http://www.w3.org/1999/xlink" ns4:href="#h"/></g></mask><mask id="S" mask-type="alpha"><use xmlns:ns5="http://www.w3.org/1999/xlink" ns5:href="#i"/></mask><mask id="L" mask-type="alpha"><g filter="url(#j)"><path fill="#fff" d="M0 0h430v430H0z" opacity="0"/><use xmlns:ns6="http://www.w3.org/1999/xlink" ns6:href="#p"/></g></mask><mask id="K" mask-type="alpha"><g filter="url(#q)"><path fill="#fff" d="M0 0h430v430H0z" opacity="0"/><use xmlns:ns7="http://www.w3.org/1999/xlink" ns7:href="#r"/></g></mask><mask id="J" mask-type="alpha"><g filter="url(#s)"><path fill="#fff" d="M0 0h430v430H0z" opacity="0"/><use xmlns:ns8="http://www.w3.org/1999/xlink" ns8:href="#t"/></g></mask><mask id="I" mask-type="alpha"><g filter="url(#u)"><path fill="#fff" d="M0 0h430v430H0z" opacity="0"/><use xmlns:ns9="http://www.w3.org/1999/xlink" ns9:href="#v"/></g></mask><mask id="O" mask-type="alpha"><use xmlns:ns10="http://www.w3.org/1999/xlink" ns10:href="#w"/></mask><path id="b" style="display:none"/><path id="d" style="display:none"/><path id="f" style="display:none"/><path id="h" style="display:none"/><path id="p" fill="red" d="M23.803-7.42h-.01m-.004 16.597.018-54.654c.003-9.068 7.356-16.416 16.424-16.413 10.169.003 18.41 8.251 18.407 18.42l-.017 52.658m0 0 .009-27.121c.003-9.619 7.802-14.461 17.421-14.458s17.413 7.803 17.41 17.422L93.453 9.2l-.02 49.57c-.01 35.27-10.68 58.76-10.68 58.76l-.01 42.59-78.95-.03-44.67-.01.02-42.59a105.96 105.96 0 0 1-44.23-60.86l-14.18-52.18c-.3-1.08-.44-2.17-.44-3.25 0-5.22 3.34-10.05 8.53-11.75 16.66-5.46 34.55 3.9 39.57 20.7l5.73 19.19.002-20.187-.09-60.653.122-35.5.008-24.396c.003-9.068 8.356-16.416 17.424-16.413 10.169.003 17.41 8.25 17.407 18.419L-11.011-86l-.122 35 .09 60.165m0 0-.046-81.353-.035-60.746c.003-9.619 7.803-17.413 17.422-17.41s17.413 7.803 17.41 17.422l.039 68.09.042 74.009" style="display:block" transform="rotate(14 -709.651 1245.456)"/><path id="r" fill="red" d="M23.803-7.42h-.01m-.004 16.597.018-54.654c.003-9.068 7.356-16.416 16.424-16.413 10.169.003 18.41 8.251 18.407 18.42l-.017 52.658m0 0 .009-27.121c.003-9.619 7.802-14.461 17.421-14.458s17.413 7.803 17.41 17.422L93.453 9.2l-.02 49.57c-.01 35.27-10.68 58.76-10.68 58.76l-.01 42.59-78.95-.03-44.67-.01.02-42.59a105.96 105.96 0 0 1-44.23-60.86l-14.18-52.18c-.3-1.08-.44-2.17-.44-3.25 0-5.22 3.34-10.05 8.53-11.75 16.66-5.46 34.55 3.9 39.57 20.7l5.73 19.19.002-20.187-.09-60.653.122-35.5.008-24.396c.003-9.068 8.356-16.416 17.424-16.413 10.169.003 17.41 8.25 17.407 18.419L-11.011-86l-.122 35 .09 60.165m0 0-.046-81.353-.035-60.746c.003-9.619 7.803-17.413 17.422-17.41s17.413 7.803 17.41 17.422l.039 68.09.042 74.009" style="display:block" transform="rotate(14 -709.651 1245.456)"/><path id="t" fill="red" d="M23.803-7.42h-.01m-.004 16.597.018-54.654c.003-9.068 7.356-16.416 16.424-16.413 10.169.003 18.41 8.251 18.407 18.42l-.017 52.658m0 0 .009-27.121c.003-9.619 7.802-14.461 17.421-14.458s17.413 7.803 17.41 17.422L93.453 9.2l-.02 49.57c-.01 35.27-10.68 58.76-10.68 58.76l-.01 42.59-78.95-.03-44.67-.01.02-42.59a105.96 105.96 0 0 1-44.23-60.86l-14.18-52.18c-.3-1.08-.44-2.17-.44-3.25 0-5.22 3.34-10.05 8.53-11.75 16.66-5.46 34.55 3.9 39.57 20.7l5.73 19.19.002-20.187-.09-60.653.122-35.5.008-24.396c.003-9.068 8.356-16.416 17.424-16.413 10.169.003 17.41 8.25 17.407 18.419L-11.011-86l-.122 35 .09 60.165m0 0-.046-81.353-.035-60.746c.003-9.619 7.803-17.413 17.422-17.41s17.413 7.803 17.41 17.422l.039 68.09.042 74.009" style="display:block" transform="rotate(14 -709.651 1245.456)"/><path id="v" fill="red" d="M23.803-7.42h-.01m-.004 16.597.018-54.654c.003-9.068 7.356-16.416 16.424-16.413 10.169.003 18.41 8.251 18.407 18.42l-.017 52.658m0 0 .009-27.121c.003-9.619 7.802-14.461 17.421-14.458s17.413 7.803 17.41 17.422L93.453 9.2l-.02 49.57c-.01 35.27-10.68 58.76-10.68 58.76l-.01 42.59-78.95-.03-44.67-.01.02-42.59a105.96 105.96 0 0 1-44.23-60.86l-14.18-52.18c-.3-1.08-.44-2.17-.44-3.25 0-5.22 3.34-10.05 8.53-11.75 16.66-5.46 34.55 3.9 39.57 20.7l5.73 19.19.002-20.187-.09-60.653.122-35.5.008-24.396c.003-9.068 8.356-16.416 17.424-16.413 10.169.003 17.41 8.25 17.407 18.419L-11.011-86l-.122 35 .09 60.165m0 0-.046-81.353-.035-60.746c.003-9.619 7.803-17.413 17.422-17.41s17.413 7.803 17.41 17.422l.039 68.09.042 74.009" style="display:block" transform="rotate(14 -709.651 1245.456)"/><clipPath id="M"><path d="M0 0h430v430H0z"/></clipPath><clipPath id="Q"><path d="M0 0h430v430H0z"/></clipPath><clipPath id="x"><path d="M0 0h430v430H0z"/></clipPath><clipPath id="N"><path d="M0 0h430v430H0z"/></clipPath><clipPath id="H"><path d="M0 0h430v430H0z"/></clipPath><g id="i" fill-opacity="0" stroke-linecap="round" stroke-linejoin="round" clip-path="url(#x)" style="display:none"><g mask="url(#D)" style="display:none"><path class="secondary"/><path class="secondary"/></g><g mask="url(#E)" style="display:none"><path class="secondary"/><path class="secondary"/></g><g mask="url(#F)" style="display:none"><path class="secondary"/><path class="secondary"/></g><g mask="url(#G)" style="display:none"><path class="secondary"/><path class="secondary"/></g><path class="primary" style="display:none"/></g><g id="w" fill-opacity="0" stroke-linecap="round" stroke-linejoin="round" clip-path="url(#H)" style="display:block"><g stroke="#08A88A" stroke-width="12.04" mask="url(#I)" style="display:block"><path d="M69.411 74.941c83.296-16.659 149.932 0 149.932 0" class="secondary"/><path d="m206.408 55.246 12.935 19.692-19.692 12.934" class="secondary"/></g><g mask="url(#J)" style="display:none"><path class="secondary"/><path class="secondary"/></g><g stroke="#08A88A" stroke-width="12.04" mask="url(#K)" style="display:block"><path d="M218.078 131.33c-83.296-16.659-149.932 0-149.932 0" class="secondary"/><path d="m81.08 111.635-12.935 19.692 19.692 12.934" class="secondary"/></g><g mask="url(#L)" style="display:none"><path class="secondary"/><path class="secondary"/></g><path stroke="#121331" stroke-width="12.04" d="M23.803-7.42h-.01m-.004 16.597.018-54.654c.003-9.068 7.356-16.416 16.424-16.413q0 0 0 0c10.169.003 18.41 8.251 18.407 18.42l-.017 52.658m0 0 .009-27.121c.003-9.619 7.802-14.461 17.421-14.458q0 0 0 0c9.619.003 17.413 7.803 17.41 17.422L93.453 9.2l-.02 49.57c-.01 35.27-10.68 58.76-10.68 58.76l-.01 42.59-78.95-.03-44.67-.01.02-42.59a105.96 105.96 0 0 1-44.23-60.86l-14.18-52.18c-.3-1.08-.44-2.17-.44-3.25 0-5.22 3.34-10.05 8.53-11.75 16.66-5.46 34.55 3.9 39.57 20.7l5.73 19.19.002-20.187-.09-60.653.122-35.5.008-24.396c.003-9.068 8.356-16.416 17.424-16.413q0 0 0 0c10.169.003 17.41 8.25 17.407 18.419L-11.011-86l-.122 35 .09 60.165m0 0-.046-81.353-.035-60.746c.003-9.619 7.803-17.413 17.422-17.41q0 0 0 0c9.619.003 17.413 7.803 17.41 17.422l.039 68.09.042 74.009" class="primary" style="display:block" transform="rotate(14 -709.651 1245.456)"/></g></defs><g clip-path="url(#M)"><g clip-path="url(#N)" mask="url(#O)" style="display:block"><g filter="url(#P)" transform="rotate(-94 238.762 -16.565)scale(2.4)"><g class="design"><path fill="#4BE1EC" d="M0-250c137.975 0 250 112.025 250 250S137.975 250 0 250-250 137.975-250 0-137.975-250 0-250" class="primary"/></g><g class="design"><path fill="#CB5EEE" d="M113.242-295.384c97.478 0 176.5 79.022 176.5 176.5s-79.022 176.5-176.5 176.5c-43.948 0-74.396-34.057-105.29-60.631-37.631-32.369-71.21-62.338-71.21-115.869 0-97.478 79.022-176.5 176.5-176.5" class="secondary"/></g></g></g><g clip-path="url(#Q)" filter="url(#R)" mask="url(#S)" style="display:none"><g class="design"><path class="primary"/></g><g class="design"><path class="secondary"/></g></g></g></svg>